# xmcd
#
# Track frame offsets:
#	150
#	8752
#	23729
#	38330
#	52387
#	68335
#	85017
#	100308
#	118116
#	135411
#	152277
#
# Disc length: 2267 seconds
#
# Revision: 0
# Processed by: cddbd v1.5.2PL0 Copyright (c) Steve Scherf et al.
# Submitted via: audiograbber 1.83.01
#
DISCID=7708d90b
DTITLE=Picturebooks - The Hands Of Time
DYEAR=2019
DGENRE=Blues Rock
TTITLE0=Horse Of Fire
TTITLE1=Howling Wolf
TTITLE2=Like My World Explodes
TTITLE3=The Hands Of Time
TTITLE4=The Day The Thunder Arrives
TTITLE5=Electric Nights
TTITLE6=Rain
TTITLE7=You Can't Let Go (feat. Chrissie Hynde)
TTITLE8=Lizard
TTITLE9=Tell Me Lies
TTITLE10=The Rising Fall
EXTD=
EXTT0=
EXTT1=
EXTT2=
EXTT3=
EXTT4=
EXTT5=
EXTT6=
EXTT7=
EXTT8=
EXTT9=
EXTT10=
PLAYORDER=
